<svg width="624" height="149" viewBox="0 0 624 149" fill="none" xmlns="http://www.w3.org/2000/svg">
<path d="M86.784 103V19.928L54.528 91.352H50.688L10.752 21.592V63.96C10.752 76.76 17.024 91.224 26.368 100.056L29.952 103H7.936V13.4H21.12L57.6 77.4L86.784 13.4H100.352V103H86.784ZM114.632 58.2C114.632 28.632 135.368 12.12 161.736 12.12C189.128 12.12 209.992 27.352 209.992 58.2C209.992 87.64 189.128 104.28 161.736 104.28C135.368 104.28 114.632 87.64 114.632 58.2ZM154.568 16.216C134.216 16.216 125.256 31.576 125.512 49.112C125.896 72.536 141.896 99.928 168.008 99.928C190.024 99.928 199.368 84.696 199.112 67.416C198.856 43.992 181.448 16.216 154.568 16.216ZM320.56 103L265.008 23.384V63.192C265.008 76.504 271.536 91.48 281.264 100.568L284.208 103H262.192V13.4H274.096L329.648 92.376V53.08C329.648 39.896 323.248 25.048 313.648 15.96L310.576 13.4H332.464V103H320.56ZM349.454 103V13.4H363.022V103H349.454ZM451.619 45.656L450.083 46.296C444.323 25.56 430.243 15.704 417.187 15.704C400.291 15.704 384.931 32.344 391.459 62.936C396.707 87.384 413.347 96.984 429.731 96.984C446.755 96.984 463.395 86.744 467.107 71.896L468.643 72.024C463.267 92.888 447.523 104.28 424.611 104.28C398.243 104.28 377.507 87.64 377.507 58.2C377.507 28.632 398.243 12.12 424.611 12.12C436.131 12.12 459.811 18.392 459.811 33.88C459.811 40.536 455.331 43.992 451.619 45.656ZM479.954 103V13.4H493.522V55.128H537.042V13.4H550.738V103H537.042V57.944H493.522V103H479.954ZM568.204 103V13.4H621.324V29.656L617.228 26.712C607.628 20.44 593.676 16.216 582.284 16.216H581.644V56.152H590.604C597.132 56.152 604.812 53.464 609.676 49.368L610.828 48.472V66.904L609.676 66.008C604.812 61.912 597.132 59.224 590.604 59.224H581.644V100.184H582.284C593.676 100.184 607.628 95.96 617.1 89.56L621.324 86.616V103H568.204Z" fill="black"/>
<path d="M22.936 125.664L22.552 125.824C21.112 120.64 17.592 118.176 14.328 118.176C10.104 118.176 6.264 122.336 7.896 129.984C9.208 136.096 13.368 138.496 17.464 138.496C21.72 138.496 25.88 135.936 26.808 132.224L27.192 132.256C25.848 137.472 21.912 140.32 16.184 140.32C9.592 140.32 4.408 136.16 4.408 128.8C4.408 121.408 9.592 117.28 16.184 117.28C19.064 117.28 24.984 118.848 24.984 122.72C24.984 124.384 23.864 125.248 22.936 125.664ZM69.2518 128.8C69.2518 121.408 74.4358 117.28 81.0278 117.28C87.8758 117.28 93.0918 121.088 93.0918 128.8C93.0918 136.16 87.8758 140.32 81.0278 140.32C74.4358 140.32 69.2518 136.16 69.2518 128.8ZM79.2358 118.304C74.1478 118.304 71.9078 122.144 71.9718 126.528C72.0677 132.384 76.0677 139.232 82.5958 139.232C88.0998 139.232 90.4358 135.424 90.3718 131.104C90.3078 125.248 85.9558 118.304 79.2358 118.304ZM147.876 137.184L149.508 135.936V140H136.708V117.6H140.068V139.296H141.06C143.3 139.296 146.02 138.432 147.876 137.184ZM203.47 137.184L205.102 135.936V140H192.302V117.6H195.662V139.296H196.654C198.894 139.296 201.614 138.432 203.47 137.184ZM247.864 140V117.6H261.144V121.664L260.12 120.928C257.72 119.36 254.232 118.304 251.384 118.304H251.224V128.288H253.464C255.095 128.288 257.016 127.616 258.232 126.592L258.52 126.368V130.976L258.232 130.752C257.016 129.728 255.095 129.056 253.464 129.056H251.224V139.296H251.384C254.232 139.296 257.72 138.24 260.088 136.64L261.144 135.904V140H247.864ZM321.749 125.664L321.365 125.824C319.925 120.64 316.405 118.176 313.141 118.176C308.917 118.176 305.077 122.336 306.709 129.984C308.021 136.096 312.181 138.496 316.277 138.496C320.533 138.496 324.693 135.936 325.621 132.224L326.005 132.256C324.661 137.472 320.725 140.32 314.997 140.32C308.405 140.32 303.221 136.16 303.221 128.8C303.221 121.408 308.405 117.28 314.997 117.28C317.877 117.28 323.797 118.848 323.797 122.72C323.797 124.384 322.677 125.248 321.749 125.664ZM369.576 119.424L366.504 121.6V117.6H384.296V121.6L381.224 119.424C380.104 118.752 378.536 118.304 377.256 118.304H377.096V140H373.704V118.304H373.544C372.264 118.304 370.696 118.752 369.576 119.424ZM426.645 140V117.6H430.037V140H426.645ZM473.658 128.8C473.658 121.408 478.842 117.28 485.434 117.28C492.282 117.28 497.498 121.088 497.498 128.8C497.498 136.16 492.282 140.32 485.434 140.32C478.842 140.32 473.658 136.16 473.658 128.8ZM483.642 118.304C478.554 118.304 476.314 122.144 476.378 126.528C476.474 132.384 480.474 139.232 487.002 139.232C492.506 139.232 494.842 135.424 494.778 131.104C494.714 125.248 490.362 118.304 483.642 118.304ZM555.546 140L541.658 120.096V130.048C541.658 133.376 543.29 137.12 545.722 139.392L546.458 140H540.954V117.6H543.93L557.818 137.344V127.52C557.818 124.224 556.218 120.512 553.818 118.24L553.05 117.6H558.522V140H555.546ZM614.738 124.896L614.418 124.864C614.834 119.872 612.178 118.016 609.554 118.016C607.09 118.016 604.658 119.616 604.658 121.856C604.658 128 619.186 127.968 619.186 134.592C619.186 138.08 616.146 140.32 611.186 140.32C607.122 140.32 603.506 139.008 601.874 135.776C600.914 134.08 602.258 132.384 604.658 132.384H605.074C605.65 137.696 609.042 139.648 612.018 139.648C614.45 139.648 616.626 138.304 616.626 136.416C616.626 130.176 602.354 130.88 602.354 123.424C602.354 120.032 604.818 117.28 610.418 117.28C614.45 117.28 617.362 118.72 618.13 121.888C618.738 123.744 617.106 125.216 614.738 124.896Z" fill="black"/>
</svg>
